<svg width="24" height="25" viewBox="0 0 24 25" fill="none" xmlns="http://www.w3.org/2000/svg">
<path d="M20.8125 12.5C20.8125 12.6492 20.7532 12.7923 20.6477 12.8977C20.5423 13.0032 20.3992 13.0625 20.25 13.0625H12.5625V20.75C12.5625 20.8992 12.5032 21.0423 12.3977 21.1477C12.2923 21.2532 12.1492 21.3125 12 21.3125C11.8508 21.3125 11.7077 21.2532 11.6023 21.1477C11.4968 21.0423 11.4375 20.8992 11.4375 20.75V13.0625H3.75C3.60082 13.0625 3.45774 13.0032 3.35225 12.8977C3.24676 12.7923 3.1875 12.6492 3.1875 12.5C3.1875 12.3508 3.24676 12.2077 3.35225 12.1023C3.45774 11.9968 3.60082 11.9375 3.75 11.9375H11.4375V4.25C11.4375 4.10082 11.4968 3.95774 11.6023 3.85225C11.7077 3.74676 11.8508 3.6875 12 3.6875C12.1492 3.6875 12.2923 3.74676 12.3977 3.85225C12.5032 3.95774 12.5625 4.10082 12.5625 4.25V11.9375H20.25C20.3992 11.9375 20.5423 11.9968 20.6477 12.1023C20.7532 12.2077 20.8125 12.3508 20.8125 12.5Z" fill="#1A1A1A"/>
</svg>
