<svg width="91" height="64" viewBox="0 0 91 64" fill="none" xmlns="http://www.w3.org/2000/svg">
<path d="M42 17.375H6C5.70163 17.375 5.41548 17.4935 5.2045 17.7045C4.99353 17.9155 4.875 18.2016 4.875 18.5V44C4.875 44.6962 5.15156 45.3639 5.64384 45.8562C6.13613 46.3484 6.80381 46.625 7.5 46.625H40.5C41.1962 46.625 41.8639 46.3484 42.3562 45.8562C42.8484 45.3639 43.125 44.6962 43.125 44V18.5C43.125 18.2016 43.0065 17.9155 42.7955 17.7045C42.5845 17.4935 42.2984 17.375 42 17.375ZM7.125 28.625H15.375V35.375H7.125V28.625ZM17.625 28.625H40.875V35.375H17.625V28.625ZM40.875 19.625V26.375H7.125V19.625H40.875ZM7.125 44V37.625H15.375V44.375H7.5C7.40054 44.375 7.30516 44.3355 7.23483 44.2652C7.16451 44.1948 7.125 44.0995 7.125 44ZM40.5 44.375H17.625V37.625H40.875V44C40.875 44.0995 40.8355 44.1948 40.7652 44.2652C40.6948 44.3355 40.5995 44.375 40.5 44.375Z" fill="#1A1A1A"/>
<path d="M59.3656 24.8412L52.3656 32.3412C52.2914 32.4204 52.1935 32.4733 52.0866 32.4919C51.9797 32.5106 51.8697 32.4939 51.7731 32.4445C51.6765 32.3952 51.5986 32.3157 51.5511 32.2181C51.5037 32.1206 51.4892 32.0102 51.51 31.9037L52.4262 27.3206L48.8243 25.9681C48.747 25.9392 48.678 25.8915 48.6236 25.8294C48.5691 25.7673 48.5309 25.6927 48.5123 25.6122C48.4937 25.5318 48.4954 25.4479 48.5171 25.3683C48.5389 25.2886 48.58 25.2155 48.6368 25.1556L55.6368 17.6556C55.711 17.5765 55.8089 17.5236 55.9158 17.5049C56.0227 17.4863 56.1327 17.5029 56.2293 17.5523C56.3259 17.6017 56.4038 17.6812 56.4513 17.7787C56.4988 17.8763 56.5132 17.9866 56.4925 18.0931L55.5737 22.6812L59.1756 24.0319C59.2524 24.061 59.3208 24.1086 59.3748 24.1704C59.4288 24.2323 59.4668 24.3065 59.4853 24.3865C59.5039 24.4665 59.5024 24.5499 59.4811 24.6292C59.4598 24.7085 59.4192 24.7813 59.3631 24.8412H59.3656Z" fill="#1A1A1A"/>
</svg>
