<svg width="78" height="64" viewBox="0 0 78 64" fill="none" xmlns="http://www.w3.org/2000/svg">
<path d="M32.6253 51.4998C32.6253 51.7982 32.5067 52.0843 32.2957 52.2953C32.0848 52.5063 31.7986 52.6248 31.5003 52.6248H16.5003C16.2019 52.6248 15.9157 52.5063 15.7048 52.2953C15.4938 52.0843 15.3753 51.7982 15.3753 51.4998C15.3753 51.2014 15.4938 50.9153 15.7048 50.7043C15.9157 50.4933 16.2019 50.3748 16.5003 50.3748H31.5003C31.7986 50.3748 32.0848 50.4933 32.2957 50.7043C32.5067 50.9153 32.6253 51.2014 32.6253 51.4998ZM40.1253 27.4998C40.1316 29.9437 39.5794 32.3568 38.511 34.5547C37.4425 36.7527 35.886 38.6776 33.9603 40.1823C33.5473 40.4997 33.2123 40.9073 32.981 41.3739C32.7496 41.8406 32.6279 42.3539 32.6253 42.8748V43.9998C32.6253 44.696 32.3487 45.3637 31.8564 45.8559C31.3641 46.3482 30.6964 46.6248 30.0003 46.6248H18.0003C17.3041 46.6248 16.6364 46.3482 16.1441 45.8559C15.6518 45.3637 15.3753 44.696 15.3753 43.9998V42.8748C15.3747 42.3594 15.2562 41.8509 15.0287 41.3884C14.8012 40.9259 14.4707 40.5217 14.0628 40.2067C12.1432 38.7117 10.5886 36.7999 9.51666 34.6157C8.44472 32.4315 7.88343 30.0322 7.87525 27.5992C7.8265 18.8579 14.8859 11.5848 23.6121 11.3748C25.7621 11.323 27.9008 11.7019 29.9022 12.489C31.9036 13.2762 33.7273 14.4557 35.266 15.9582C36.8047 17.4608 38.0272 19.2559 38.8618 21.238C39.6963 23.2201 40.1259 25.3492 40.1253 27.4998ZM37.8753 27.4998C37.8758 25.6491 37.5061 23.817 36.7879 22.1114C36.0697 20.4057 35.0176 18.861 33.6934 17.5681C32.3693 16.2752 30.7998 15.2603 29.0775 14.583C27.3552 13.9058 25.5148 13.58 23.6646 13.6248C16.1571 13.8123 10.084 20.0635 10.1253 27.5785C10.1324 29.6725 10.6154 31.7374 11.5379 33.6172C12.4605 35.497 13.7983 37.1424 15.4503 38.4292C16.1286 38.9545 16.6774 39.6285 17.0545 40.3992C17.4316 41.1699 17.6268 42.0168 17.6253 42.8748V43.9998C17.6253 44.0992 17.6648 44.1946 17.7351 44.265C17.8054 44.3353 17.9008 44.3748 18.0003 44.3748H30.0003C30.0997 44.3748 30.1951 44.3353 30.2654 44.265C30.3357 44.1946 30.3753 44.0992 30.3753 43.9998V42.8748C30.3776 42.0137 30.5764 41.1644 30.9565 40.3917C31.3367 39.6191 31.8882 38.9433 32.569 38.416C34.2271 37.1214 35.5672 35.4647 36.4869 33.5727C37.4066 31.6807 37.8815 29.6035 37.8753 27.4998ZM34.1103 25.8123C33.7351 23.716 32.7267 21.785 31.2209 20.2791C29.7151 18.7733 27.784 17.7649 25.6878 17.3898C25.542 17.3652 25.3928 17.3695 25.2487 17.4025C25.1046 17.4356 24.9684 17.4967 24.8479 17.5823C24.6046 17.7553 24.44 18.0179 24.3903 18.3123C24.3405 18.6067 24.4098 18.9088 24.5828 19.1521C24.7558 19.3954 25.0184 19.5601 25.3128 19.6098C28.5715 20.1573 31.3371 22.9248 31.8903 26.1873C31.9345 26.4492 32.0701 26.6871 32.2729 26.8587C32.4757 27.0302 32.7327 27.1245 32.9984 27.1248C33.0612 27.1244 33.1238 27.1194 33.1859 27.1098C33.3319 27.0855 33.4716 27.0326 33.5971 26.9542C33.7226 26.8758 33.8314 26.7734 33.9173 26.6528C34.0032 26.5323 34.0644 26.396 34.0975 26.2518C34.1306 26.1076 34.135 25.9582 34.1103 25.8123Z" fill="#343330"/>
</svg>
