<svg width="16" height="17" viewBox="0 0 16 17" fill="none" xmlns="http://www.w3.org/2000/svg">
<path d="M13.5306 7.03063L8.5306 12.0306C8.46092 12.1005 8.37813 12.156 8.28696 12.1939C8.1958 12.2317 8.09806 12.2512 7.99935 12.2512C7.90064 12.2512 7.8029 12.2317 7.71173 12.1939C7.62057 12.156 7.53778 12.1005 7.4681 12.0306L2.4681 7.03063C2.3272 6.88973 2.24805 6.69864 2.24805 6.49938C2.24805 6.30012 2.3272 6.10902 2.4681 5.96813C2.60899 5.82723 2.80009 5.74808 2.99935 5.74808C3.19861 5.74808 3.3897 5.82723 3.5306 5.96813L7.99997 10.4375L12.4693 5.9675C12.6102 5.82661 12.8013 5.74745 13.0006 5.74745C13.1999 5.74745 13.391 5.82661 13.5318 5.9675C13.6727 6.1084 13.7519 6.2995 13.7519 6.49875C13.7519 6.69801 13.6727 6.88911 13.5318 7.03L13.5306 7.03063Z" fill="#1A1A1A"/>
</svg>
