<svg width="249" height="124" viewBox="0 0 249 124" fill="none" xmlns="http://www.w3.org/2000/svg">
<rect width="249" height="28" rx="8" fill="white"/>
<circle cx="22" cy="14" r="2" fill="#FFD400"/>
<path opacity="0.49" d="M43.64 13.24H48.936V15.64H43.64V13.24ZM48.2181 13.24H53.5141V15.64H48.2181V13.24ZM52.7962 13.24H55.8043V15.64H52.7962V13.24ZM55.0853 13.24H58.0933V15.64H55.0853V13.24ZM57.3744 13.24H60.3824V15.64H57.3744V13.24ZM59.6634 13.24H64.9594V15.64H59.6634V13.24ZM64.2416 13.24H67.2496V15.64H64.2416V13.24ZM66.5306 13.24H71.8266V15.64H66.5306V13.24ZM71.1087 13.24H76.4048V15.64H71.1087V13.24ZM75.6869 13.24H80.9829V15.64H75.6869V13.24ZM85.0619 13.24H88.0699V15.64H85.0619V13.24ZM87.3509 13.24H92.6469V15.64H87.3509V13.24ZM91.9291 13.24H97.2251V15.64H91.9291V13.24ZM96.5072 13.24H101.803V15.64H96.5072V13.24ZM101.085 13.24H104.093V15.64H101.085V13.24ZM103.374 13.24H108.67V15.64H103.374V13.24ZM107.952 13.24H113.249V15.64H107.952V13.24ZM112.531 13.24H115.539V15.64H112.531V13.24Z" fill="#797979"/>
<path opacity="0.49" d="M215.82 13.62H218.468V14.82H215.82V13.62ZM218.109 13.62H220.757V14.82H218.109V13.62ZM220.398 13.62H223.046V14.82H220.398V13.62ZM222.687 13.62H225.335V14.82H222.687V13.62ZM224.976 13.62H227.624V14.82H224.976V13.62ZM227.265 13.62H229.913V14.82H227.265V13.62ZM229.554 13.62H232.202V14.82H229.554V13.62Z" fill="#797979"/>
<rect y="32" width="249" height="28" rx="8" fill="white"/>
<circle cx="22" cy="46" r="2" fill="#FFD400"/>
<path opacity="0.49" d="M43.64 45.24H46.648V47.64H43.64V45.24ZM45.9291 45.24H51.2251V47.64H45.9291V45.24ZM50.5072 45.24H55.8032V47.64H50.5072V45.24ZM55.0853 45.24H58.0933V47.64H55.0853V45.24ZM57.3744 45.24H62.6704V47.64H57.3744V45.24ZM61.9525 45.24H64.9605V47.64H61.9525V45.24ZM64.2416 45.24H67.2496V47.64H64.2416V45.24ZM66.5306 45.24H71.8266V47.64H66.5306V45.24ZM71.1087 45.24H74.1168V47.64H71.1087V45.24ZM73.3978 45.24H78.6938V47.64H73.3978V45.24ZM77.9759 45.24H83.2719V47.64H77.9759V45.24ZM87.3509 45.24H90.3589V47.64H87.3509V45.24ZM89.64 45.24H94.936V47.64H89.64V45.24ZM94.2181 45.24H99.5141V47.64H94.2181V45.24ZM98.7962 45.24H104.092V47.64H98.7962V45.24ZM103.374 45.24H108.67V47.64H103.374V45.24ZM107.952 45.24H110.961V47.64H107.952V45.24ZM110.242 45.24H113.25V47.64H110.242V45.24Z" fill="#797979"/>
<path opacity="0.49" d="M222.82 45.62H225.468V46.82H222.82V45.62ZM225.109 45.62H227.757V46.82H225.109V45.62ZM227.398 45.62H230.046V46.82H227.398V45.62ZM229.687 45.62H232.335V46.82H229.687V45.62Z" fill="#B2B2B2"/>
<rect y="64" width="249" height="28" rx="8" fill="#F8F8F8"/>
<path d="M24.1633 76.6303C24.2067 76.6716 24.2411 76.7206 24.2646 76.7746C24.2881 76.8285 24.3002 76.8863 24.3002 76.9447C24.3002 77.0031 24.2881 77.0609 24.2646 77.1149C24.2411 77.1688 24.2067 77.2178 24.1633 77.2591L20.897 80.3697C20.8537 80.411 20.8022 80.4438 20.7456 80.4661C20.689 80.4885 20.6282 80.5 20.5669 80.5C20.5056 80.5 20.4449 80.4885 20.3882 80.4661C20.3316 80.4438 20.2801 80.411 20.2368 80.3697L18.8369 79.0366C18.7494 78.9532 18.7002 78.8401 18.7002 78.7222C18.7002 78.6043 18.7494 78.4912 18.8369 78.4078C18.9245 78.3244 19.0432 78.2776 19.1671 78.2776C19.2909 78.2776 19.4096 78.3244 19.4972 78.4078L20.5669 79.4271L23.5031 76.6303C23.5464 76.589 23.5979 76.5562 23.6545 76.5339C23.7112 76.5115 23.7719 76.5 23.8332 76.5C23.8945 76.5 23.9553 76.5115 24.0119 76.5339C24.0685 76.5562 24.12 76.589 24.1633 76.6303Z" fill="#1A1A1A"/>
<path opacity="0.49" d="M43.64 77.24H48.936V79.64H43.64V77.24ZM48.2181 77.24H53.5141V79.64H48.2181V77.24ZM52.7962 77.24H58.0923V79.64H52.7962V77.24ZM57.3744 77.24H60.3824V79.64H57.3744V77.24ZM59.6634 77.24H64.9594V79.64H59.6634V77.24ZM64.2416 77.24H69.5376V79.64H64.2416V77.24ZM73.6166 77.24H78.9126V79.64H73.6166V77.24ZM78.1947 77.24H83.4907V79.64H78.1947V77.24ZM82.7728 77.24H88.0688V79.64H82.7728V77.24ZM87.3509 77.24H92.6469V79.64H87.3509V77.24ZM91.9291 77.24H97.2251V79.64H91.9291V77.24ZM96.5072 77.24H101.803V79.64H96.5072V77.24ZM101.085 77.24H106.381V79.64H101.085V77.24ZM110.46 77.24H115.756V79.64H110.46V77.24ZM115.038 77.24H120.334V79.64H115.038V77.24ZM119.617 77.24H124.913V79.64H119.617V77.24ZM128.992 77.24H134.288V79.64H128.992V77.24ZM133.57 77.24H138.866V79.64H133.57V77.24ZM138.148 77.24H143.444V79.64H138.148V77.24ZM142.726 77.24H148.022V79.64H142.726V77.24Z" fill="#797979"/>
<path opacity="0.49" d="M218.82 77.62H221.468V78.82H218.82V77.62ZM221.109 77.62H223.757V78.82H221.109V77.62ZM223.398 77.62H226.046V78.82H223.398V77.62ZM225.687 77.62H228.335V78.82H225.687V77.62ZM227.976 77.62H230.624V78.82H227.976V77.62ZM230.265 77.62H232.913V78.82H230.265V77.62Z" fill="#797979"/>
<rect y="96" width="249" height="28" rx="8" fill="#F8F8F8"/>
<path d="M24.1633 108.63C24.2067 108.672 24.2411 108.721 24.2646 108.775C24.2881 108.828 24.3002 108.886 24.3002 108.945C24.3002 109.003 24.2881 109.061 24.2646 109.115C24.2411 109.169 24.2067 109.218 24.1633 109.259L20.897 112.37C20.8537 112.411 20.8022 112.444 20.7456 112.466C20.689 112.488 20.6282 112.5 20.5669 112.5C20.5056 112.5 20.4449 112.488 20.3882 112.466C20.3316 112.444 20.2801 112.411 20.2368 112.37L18.8369 111.037C18.7494 110.953 18.7002 110.84 18.7002 110.722C18.7002 110.604 18.7494 110.491 18.8369 110.408C18.9245 110.324 19.0432 110.278 19.1671 110.278C19.2909 110.278 19.4096 110.324 19.4972 110.408L20.5669 111.427L23.5031 108.63C23.5464 108.589 23.5979 108.556 23.6545 108.534C23.7112 108.512 23.7719 108.5 23.8332 108.5C23.8945 108.5 23.9553 108.512 24.0119 108.534C24.0685 108.556 24.12 108.589 24.1633 108.63Z" fill="#1A1A1A"/>
<path opacity="0.49" d="M43.64 109.24H48.936V111.64H43.64V109.24ZM48.2181 109.24H53.5141V111.64H48.2181V109.24ZM52.7962 109.24H55.8043V111.64H52.7962V109.24ZM55.0853 109.24H60.3813V111.64H55.0853V109.24ZM59.6634 109.24H62.6714V111.64H59.6634V109.24ZM66.7494 109.24H72.0454V111.64H66.7494V109.24ZM71.3275 109.24H76.6235V111.64H71.3275V109.24ZM75.9056 109.24H81.2016V111.64H75.9056V109.24ZM80.4837 109.24H83.4918V111.64H80.4837V109.24ZM82.7728 109.24H88.0688V111.64H82.7728V109.24ZM87.3509 109.24H92.6469V111.64H87.3509V109.24ZM91.9291 109.24H97.2251V111.64H91.9291V109.24ZM96.5072 109.24H99.5152V111.64H96.5072V109.24ZM98.7962 109.24H104.092V111.64H98.7962V109.24ZM103.374 109.24H108.67V111.64H103.374V109.24ZM107.952 109.24H113.249V111.64H107.952V109.24ZM112.531 109.24H117.827V111.64H112.531V109.24ZM117.109 109.24H120.117V111.64H117.109V109.24ZM119.398 109.24H124.694V111.64H119.398V109.24ZM123.976 109.24H129.272V111.64H123.976V109.24ZM128.554 109.24H133.85V111.64H128.554V109.24ZM133.132 109.24H138.428V111.64H133.132V109.24ZM137.71 109.24H143.006V111.64H137.71V109.24Z" fill="#797979"/>
<path opacity="0.49" d="M222.82 109.62H225.468V110.82H222.82V109.62ZM225.109 109.62H227.757V110.82H225.109V109.62ZM227.398 109.62H230.046V110.82H227.398V109.62ZM229.687 109.62H232.335V110.82H229.687V109.62Z" fill="#797979"/>
</svg>
