<svg width="259" height="260" viewBox="0 0 259 260" fill="none" xmlns="http://www.w3.org/2000/svg">
<circle cx="129.5" cy="130" r="59.5" stroke="#797979" stroke-dasharray="2 2"/>
<circle cx="129.5" cy="130" r="100" stroke="#B2B2B2" stroke-dasharray="2 2"/>
<circle cx="129.5" cy="130" r="129" stroke="#DDDDDD" stroke-dasharray="2 2"/>
<path d="M147.625 130.5C147.625 130.798 147.506 131.085 147.295 131.295C147.085 131.506 146.798 131.625 146.5 131.625H131.125V147C131.125 147.298 131.006 147.585 130.795 147.795C130.585 148.006 130.298 148.125 130 148.125C129.702 148.125 129.415 148.006 129.205 147.795C128.994 147.585 128.875 147.298 128.875 147V131.625H113.5C113.202 131.625 112.915 131.506 112.705 131.295C112.494 131.085 112.375 130.798 112.375 130.5C112.375 130.202 112.494 129.915 112.705 129.705C112.915 129.494 113.202 129.375 113.5 129.375H128.875V114C128.875 113.702 128.994 113.415 129.205 113.205C129.415 112.994 129.702 112.875 130 112.875C130.298 112.875 130.585 112.994 130.795 113.205C131.006 113.415 131.125 113.702 131.125 114V129.375H146.5C146.798 129.375 147.085 129.494 147.295 129.705C147.506 129.915 147.625 130.202 147.625 130.5Z" fill="#1A1A1A"/>
</svg>
