<svg width="22" height="10" viewBox="0 0 22 10" fill="none" xmlns="http://www.w3.org/2000/svg">
<path d="M1.76127 9V1.72727H6.49139V2.83168H3.07875V4.80611H6.24636V5.91051H3.07875V7.8956H6.5198V9H1.76127ZM12.42 1.72727H13.7375V6.47869C13.7375 6.99953 13.6144 7.45762 13.3682 7.85298C13.1243 8.24834 12.781 8.55729 12.3383 8.77983C11.8956 9 11.3783 9.11009 10.7865 9.11009C10.1923 9.11009 9.6738 9 9.23109 8.77983C8.78838 8.55729 8.44511 8.24834 8.20126 7.85298C7.95742 7.45762 7.83549 6.99953 7.83549 6.47869V1.72727H9.15297V6.36861C9.15297 6.67164 9.21925 6.94152 9.35183 7.17827C9.48677 7.41501 9.67617 7.60085 9.92001 7.7358C10.1639 7.86837 10.4527 7.93466 10.7865 7.93466C11.1203 7.93466 11.4091 7.86837 11.653 7.7358C11.8992 7.60085 12.0886 7.41501 12.2211 7.17827C12.3537 6.94152 12.42 6.67164 12.42 6.36861V1.72727ZM15.1695 9V1.72727H17.8968C18.4555 1.72727 18.9242 1.82434 19.303 2.01847C19.6842 2.21259 19.9718 2.48485 20.1659 2.83523C20.3624 3.18324 20.4607 3.58925 20.4607 4.05327C20.4607 4.51965 20.3612 4.92448 20.1624 5.26776C19.9659 5.60866 19.6759 5.87263 19.2923 6.05966C18.9088 6.24432 18.4377 6.33665 17.879 6.33665H15.9365V5.2429H17.7014C18.0281 5.2429 18.2957 5.19792 18.504 5.10795C18.7123 5.01562 18.8662 4.88187 18.9656 4.70668C19.0674 4.52912 19.1183 4.31132 19.1183 4.05327C19.1183 3.79522 19.0674 3.57505 18.9656 3.39276C18.8638 3.2081 18.7088 3.06842 18.5004 2.97372C18.2921 2.87666 18.0234 2.82812 17.6943 2.82812H16.4869V9H15.1695ZM18.9266 5.70455L20.727 9H19.2568L17.4884 5.70455H18.9266Z" fill="#1A1A1A"/>
</svg>
