<svg width="24" height="24" viewBox="0 0 24 24" fill="none" xmlns="http://www.w3.org/2000/svg">
<path d="M16.3125 21.7499C16.3125 21.8991 16.2532 22.0422 16.1478 22.1476C16.0423 22.2531 15.8992 22.3124 15.75 22.3124H8.25C8.10082 22.3124 7.95775 22.2531 7.85226 22.1476C7.74677 22.0422 7.6875 21.8991 7.6875 21.7499C7.6875 21.6007 7.74677 21.4576 7.85226 21.3521C7.95775 21.2467 8.10082 21.1874 8.25 21.1874H15.75C15.8992 21.1874 16.0423 21.2467 16.1478 21.3521C16.2532 21.4576 16.3125 21.6007 16.3125 21.7499ZM20.0625 9.74989C20.0657 10.9719 19.7896 12.1784 19.2554 13.2774C18.7211 14.3764 17.9429 15.3388 16.98 16.0911C16.7735 16.2499 16.606 16.4537 16.4904 16.687C16.3747 16.9203 16.3138 17.177 16.3125 17.4374V17.9999C16.3125 18.348 16.1742 18.6818 15.9281 18.928C15.6819 19.1741 15.3481 19.3124 15 19.3124H9C8.65191 19.3124 8.31807 19.1741 8.07193 18.928C7.82578 18.6818 7.6875 18.348 7.6875 17.9999V17.4374C7.68725 17.1797 7.62797 16.9254 7.51421 16.6942C7.40046 16.4629 7.23525 16.2608 7.03125 16.1033C6.07146 15.3559 5.29418 14.3999 4.75821 13.3078C4.22224 12.2158 3.94159 11.0161 3.9375 9.79958C3.91313 5.42896 7.44282 1.79239 11.8059 1.68739C12.8809 1.66151 13.9503 1.85093 14.951 2.24451C15.9517 2.63808 16.8635 3.22786 17.6329 3.97912C18.4022 4.73039 19.0135 5.62796 19.4308 6.61902C19.848 7.61007 20.0628 8.67458 20.0625 9.74989ZM18.9375 9.74989C18.9378 8.82455 18.7529 7.90851 18.3938 7.05569C18.0347 6.20286 17.5087 5.43049 16.8466 4.78404C16.1845 4.1376 15.3998 3.63013 14.5386 3.29152C13.6775 2.95292 12.7573 2.79001 11.8322 2.81239C8.07844 2.90614 5.04188 6.03177 5.0625 9.78927C5.06606 10.8362 5.30759 11.8687 5.76885 12.8086C6.23011 13.7485 6.89902 14.5712 7.725 15.2146C8.06418 15.4773 8.33859 15.8142 8.52712 16.1996C8.71565 16.5849 8.81328 17.0084 8.8125 17.4374V17.9999C8.8125 18.0496 8.83226 18.0973 8.86742 18.1325C8.90258 18.1676 8.95028 18.1874 9 18.1874H15C15.0497 18.1874 15.0974 18.1676 15.1326 18.1325C15.1677 18.0973 15.1875 18.0496 15.1875 17.9999V17.4374C15.1887 17.0068 15.2881 16.5822 15.4781 16.1959C15.6682 15.8095 15.944 15.4717 16.2844 15.208C17.1134 14.5607 17.7835 13.7324 18.2433 12.7864C18.7032 11.8404 18.9406 10.8017 18.9375 9.74989ZM17.055 8.90614C16.8674 7.858 16.3633 6.89249 15.6103 6.13957C14.8574 5.38665 13.8919 4.88247 12.8438 4.69489C12.7709 4.68258 12.6963 4.68475 12.6242 4.70126C12.5522 4.71778 12.4841 4.74833 12.4239 4.79116C12.3022 4.87766 12.2199 5.00895 12.195 5.15614C12.1701 5.30334 12.2048 5.45438 12.2913 5.57605C12.3778 5.69771 12.5091 5.78003 12.6563 5.80489C14.2856 6.07864 15.6684 7.46239 15.945 9.09364C15.9671 9.22462 16.0349 9.34353 16.1363 9.42933C16.2377 9.51512 16.3662 9.56226 16.4991 9.56239C16.5305 9.56218 16.5618 9.55968 16.5928 9.55489C16.6658 9.54274 16.7357 9.5163 16.7984 9.47709C16.8612 9.43789 16.9156 9.38669 16.9585 9.32642C17.0015 9.26616 17.0321 9.19801 17.0486 9.1259C17.0652 9.05378 17.0674 8.9791 17.055 8.90614Z" fill="#B2B2B2"/>
</svg>
