<svg width="25" height="24" viewBox="0 0 25 24" fill="none" xmlns="http://www.w3.org/2000/svg">
<path d="M12.5 2.25C10.5716 2.25 8.68657 2.82183 7.08319 3.89317C5.47982 4.96452 4.23013 6.48726 3.49218 8.26884C2.75422 10.0504 2.56114 12.0108 2.93735 13.9021C3.31355 15.7934 4.24215 17.5307 5.60571 18.8943C6.96928 20.2579 8.70656 21.1865 10.5979 21.5627C12.4892 21.9389 14.4496 21.7458 16.2312 21.0078C18.0127 20.2699 19.5355 19.0202 20.6068 17.4168C21.6782 15.8134 22.25 13.9284 22.25 12C22.2473 9.41498 21.2192 6.93661 19.3913 5.10872C17.5634 3.28084 15.085 2.25273 12.5 2.25ZM12.5 20.25C10.8683 20.25 9.27326 19.7661 7.91655 18.8596C6.55984 17.9531 5.50242 16.6646 4.878 15.1571C4.25358 13.6496 4.0902 11.9908 4.40853 10.3905C4.72685 8.79016 5.51259 7.32015 6.66637 6.16637C7.82016 5.01259 9.29017 4.22685 10.8905 3.90852C12.4909 3.59019 14.1497 3.75357 15.6571 4.37799C17.1646 5.00242 18.4531 6.05984 19.3596 7.41655C20.2662 8.77325 20.75 10.3683 20.75 12C20.7475 14.1873 19.8775 16.2843 18.3309 17.8309C16.7843 19.3775 14.6873 20.2475 12.5 20.25ZM8 10.125C8 9.9025 8.06598 9.68499 8.1896 9.49998C8.31322 9.31498 8.48892 9.17078 8.69449 9.08564C8.90005 9.00049 9.12625 8.97821 9.34448 9.02162C9.56271 9.06502 9.76317 9.17217 9.9205 9.3295C10.0778 9.48684 10.185 9.68729 10.2284 9.90552C10.2718 10.1238 10.2495 10.35 10.1644 10.5555C10.0792 10.7611 9.93503 10.9368 9.75002 11.0604C9.56502 11.184 9.34751 11.25 9.125 11.25C8.82664 11.25 8.54049 11.1315 8.32951 10.9205C8.11853 10.7095 8 10.4234 8 10.125ZM17.75 10.125C17.75 10.3239 17.671 10.5147 17.5303 10.6553C17.3897 10.796 17.1989 10.875 17 10.875H14.75C14.5511 10.875 14.3603 10.796 14.2197 10.6553C14.079 10.5147 14 10.3239 14 10.125C14 9.92609 14.079 9.73532 14.2197 9.59467C14.3603 9.45402 14.5511 9.375 14.75 9.375H17C17.1989 9.375 17.3897 9.45402 17.5303 9.59467C17.671 9.73532 17.75 9.92609 17.75 10.125ZM16.8988 14.625C15.9341 16.2928 14.3309 17.25 12.5 17.25C10.6691 17.25 9.06594 16.2937 8.10032 14.625C8.05107 14.5397 8.01911 14.4455 8.00626 14.3478C7.99342 14.2502 7.99993 14.1509 8.02544 14.0558C8.05095 13.9606 8.09495 13.8714 8.15493 13.7933C8.2149 13.7151 8.28969 13.6496 8.375 13.6003C8.46032 13.5511 8.5545 13.5191 8.65217 13.5063C8.74984 13.4934 8.84909 13.4999 8.94424 13.5254C9.03939 13.5509 9.12858 13.5949 9.20673 13.6549C9.28488 13.7149 9.35045 13.7897 9.39969 13.875C10.0991 15.0853 11.1997 15.75 12.5 15.75C13.8003 15.75 14.9009 15.0844 15.6013 13.875C15.6481 13.7854 15.7127 13.7062 15.791 13.6421C15.8693 13.5781 15.9597 13.5305 16.0569 13.5023C16.154 13.4742 16.2558 13.4659 16.3563 13.4781C16.4567 13.4903 16.5536 13.5227 16.6412 13.5733C16.7287 13.6239 16.8052 13.6917 16.8658 13.7727C16.9265 13.8536 16.9702 13.946 16.9943 14.0442C17.0183 14.1425 17.0223 14.2446 17.0059 14.3444C16.9895 14.4442 16.953 14.5396 16.8988 14.625Z" fill="white"/>
</svg>
