<svg width="64" height="64" viewBox="0 0 64 64" fill="none" xmlns="http://www.w3.org/2000/svg">
<path d="M24 12.875C20.2174 12.875 16.5198 13.9967 13.3747 16.0981C10.2296 18.1996 7.77834 21.1865 6.33081 24.6812C4.88329 28.1758 4.50455 32.0212 5.24249 35.7311C5.98043 39.441 7.80191 42.8487 10.4766 45.5234C13.1513 48.1981 16.559 50.0196 20.2689 50.7575C23.9788 51.4955 27.8242 51.1167 31.3188 49.6692C34.8135 48.2217 37.8004 45.7704 39.9019 42.6253C42.0033 39.4802 43.125 35.7826 43.125 32C43.1191 26.9296 41.1022 22.0685 37.5168 18.4832C33.9315 14.8978 29.0704 12.881 24 12.875ZM24 48.875C20.6624 48.875 17.3998 47.8853 14.6248 46.031C11.8497 44.1768 9.68677 41.5413 8.40954 38.4578C7.13231 35.3743 6.79813 31.9813 7.44926 28.7079C8.10038 25.4344 9.70757 22.4276 12.0676 20.0676C14.4276 17.7076 17.4344 16.1004 20.7079 15.4492C23.9813 14.7981 27.3743 15.1323 30.4578 16.4095C33.5413 17.6868 36.1768 19.8497 38.0311 22.6248C39.8853 25.3998 40.875 28.6624 40.875 32C40.87 36.474 39.0906 40.7633 35.927 43.9269C32.7634 47.0905 28.474 48.87 24 48.875ZM15.375 28.25C15.375 27.8792 15.485 27.5166 15.691 27.2083C15.897 26.9 16.1899 26.6596 16.5325 26.5177C16.8751 26.3758 17.2521 26.3387 17.6158 26.411C17.9795 26.4834 18.3136 26.662 18.5758 26.9242C18.8381 27.1864 19.0166 27.5205 19.089 27.8842C19.1613 28.2479 19.1242 28.6249 18.9823 28.9675C18.8404 29.3101 18.6 29.603 18.2917 29.809C17.9834 30.015 17.6208 30.125 17.25 30.125C16.7527 30.125 16.2758 29.9275 15.9242 29.5758C15.5726 29.2242 15.375 28.7473 15.375 28.25ZM34.125 28.25C34.125 28.5484 34.0065 28.8345 33.7955 29.0455C33.5845 29.2565 33.2984 29.375 33 29.375H28.5C28.2016 29.375 27.9155 29.2565 27.7045 29.0455C27.4935 28.8345 27.375 28.5484 27.375 28.25C27.375 27.9516 27.4935 27.6655 27.7045 27.4545C27.9155 27.2435 28.2016 27.125 28.5 27.125H33C33.2984 27.125 33.5845 27.2435 33.7955 27.4545C34.0065 27.6655 34.125 27.9516 34.125 28.25ZM32.4731 37.0625C30.6131 40.28 27.525 42.125 24 42.125C20.475 42.125 17.3869 40.28 15.5269 37.0625C15.3924 36.8054 15.3624 36.5063 15.4433 36.2276C15.5241 35.9489 15.7095 35.7123 15.9607 35.567C16.2119 35.4218 16.5095 35.3793 16.7914 35.4483C17.0732 35.5174 17.3175 35.6926 17.4731 35.9375C18.9431 38.4762 21.2606 39.875 24 39.875C26.7394 39.875 29.0625 38.4762 30.5269 35.9375C30.5972 35.8031 30.694 35.6842 30.8115 35.5882C30.9289 35.4921 31.0646 35.4208 31.2103 35.3785C31.356 35.3362 31.5088 35.3239 31.6594 35.3422C31.81 35.3605 31.9554 35.409 32.0867 35.485C32.2181 35.5609 32.3327 35.6626 32.4238 35.784C32.5148 35.9054 32.5803 36.0439 32.6164 36.1913C32.6525 36.3387 32.6584 36.4918 32.6338 36.6416C32.6092 36.7913 32.5545 36.9345 32.4731 37.0625Z" fill="#343330"/>
</svg>
