<svg width="64" height="64" viewBox="0 0 64 64" fill="none" xmlns="http://www.w3.org/2000/svg">
<path d="M43.125 45.2469V53C43.125 53.2984 43.0065 53.5845 42.7955 53.7955C42.5845 54.0065 42.2984 54.125 42 54.125C41.7016 54.125 41.4155 54.0065 41.2045 53.7955C40.9935 53.5845 40.875 53.2984 40.875 53V45.2469C40.8685 43.128 40.3946 41.0366 39.4871 39.1218C38.5796 37.2071 37.2609 35.5161 35.625 34.1694V45.9331C35.6235 46.1742 35.5447 46.4085 35.4 46.6013C35.2553 46.7942 35.0525 46.9355 34.8215 47.0044C34.5904 47.0733 34.3434 47.0661 34.1167 46.984C33.89 46.9018 33.6958 46.749 33.5625 46.5481L31.56 43.4919C31.5483 43.4744 31.5376 43.4563 31.5281 43.4375C31.1833 42.8326 30.6122 42.3894 29.9406 42.2055C29.269 42.0216 28.5518 42.112 27.9469 42.4569C27.3419 42.8017 26.8988 43.3728 26.7149 44.0444C26.531 44.716 26.6214 45.4332 26.9663 46.0381L31.125 52.3831C31.2645 52.6314 31.3047 52.9233 31.2375 53.2C31.1702 53.4767 31.0005 53.7176 30.7627 53.8741C30.5248 54.0306 30.2364 54.0911 29.9557 54.0434C29.6749 53.9956 29.4228 53.8432 29.25 53.6169L25.0763 47.2419C25.065 47.2231 25.0538 47.2062 25.0444 47.1875C24.4608 46.0871 24.3206 44.805 24.6525 43.6045C24.9844 42.404 25.7632 41.376 26.8291 40.7316C27.895 40.0872 29.1672 39.8753 30.3845 40.1392C31.6017 40.4032 32.6718 41.1232 33.375 42.1512V20C33.375 19.9005 33.3355 19.8052 33.2652 19.7348C33.1948 19.6645 33.0995 19.625 33 19.625H30C29.7016 19.625 29.4155 19.5065 29.2045 19.2955C28.9935 19.0845 28.875 18.7984 28.875 18.5C28.875 18.2016 28.9935 17.9155 29.2045 17.7045C29.4155 17.4935 29.7016 17.375 30 17.375H33C33.6962 17.375 34.3639 17.6516 34.8562 18.1438C35.3484 18.6361 35.625 19.3038 35.625 20V31.3794C37.9226 32.8923 39.8099 34.9504 41.1186 37.3701C42.4273 39.7899 43.1166 42.4959 43.125 45.2469ZM16.125 18.5C16.125 18.2016 16.0065 17.9155 15.7955 17.7045C15.5845 17.4935 15.2984 17.375 15 17.375H12C11.3038 17.375 10.6361 17.6516 10.1438 18.1438C9.65156 18.6361 9.375 19.3038 9.375 20V45.5C9.375 45.7984 9.49353 46.0845 9.7045 46.2955C9.91548 46.5065 10.2016 46.625 10.5 46.625C10.7984 46.625 11.0845 46.5065 11.2955 46.2955C11.5065 46.0845 11.625 45.7984 11.625 45.5V20C11.625 19.9005 11.6645 19.8052 11.7348 19.7348C11.8052 19.6645 11.9005 19.625 12 19.625H15C15.2984 19.625 15.5845 19.5065 15.7955 19.2955C16.0065 19.0845 16.125 18.7984 16.125 18.5ZM29.295 26.705C29.0841 26.4943 28.7981 26.376 28.5 26.376C28.2019 26.376 27.9159 26.4943 27.705 26.705L23.625 30.7831V11C23.625 10.7016 23.5065 10.4155 23.2955 10.2045C23.0845 9.99353 22.7984 9.875 22.5 9.875C22.2016 9.875 21.9155 9.99353 21.7045 10.2045C21.4935 10.4155 21.375 10.7016 21.375 11V30.7831L17.295 26.705C17.0817 26.5063 16.7997 26.3981 16.5082 26.4032C16.2168 26.4084 15.9387 26.5264 15.7326 26.7326C15.5264 26.9387 15.4084 27.2168 15.4032 27.5082C15.3981 27.7997 15.5063 28.0817 15.705 28.295L21.705 34.295C21.9159 34.5057 22.2019 34.624 22.5 34.624C22.7981 34.624 23.0841 34.5057 23.295 34.295L29.295 28.295C29.5057 28.0841 29.624 27.7981 29.624 27.5C29.624 27.2019 29.5057 26.9159 29.295 26.705Z" fill="#343330"/>
</svg>
