<svg width="22" height="10" viewBox="0 0 22 10" fill="none" xmlns="http://www.w3.org/2000/svg">
<path d="M1.89995 9V1.72727H3.21742V4.80611H6.58745V1.72727H7.90847V9H6.58745V5.91051H3.21742V9H1.89995ZM13.9259 1.72727H15.2433V6.47869C15.2433 6.99953 15.1202 7.45762 14.874 7.85298C14.6302 8.24834 14.2869 8.55729 13.8442 8.77983C13.4015 9 12.8842 9.11009 12.2923 9.11009C11.6981 9.11009 11.1797 9 10.7369 8.77983C10.2942 8.55729 9.95096 8.24834 9.70712 7.85298C9.46328 7.45762 9.34135 6.99953 9.34135 6.47869V1.72727H10.6588V6.36861C10.6588 6.67164 10.7251 6.94152 10.8577 7.17827C10.9926 7.41501 11.182 7.60085 11.4259 7.7358C11.6697 7.86837 11.9585 7.93466 12.2923 7.93466C12.6262 7.93466 12.915 7.86837 13.1588 7.7358C13.405 7.60085 13.5944 7.41501 13.727 7.17827C13.8596 6.94152 13.9259 6.67164 13.9259 6.36861V1.72727ZM16.6753 9V1.72727H21.3344V2.83168H17.9928V4.80611H21.0148V5.91051H17.9928V9H16.6753Z" fill="#1A1A1A"/>
</svg>
