<svg width="64" height="64" viewBox="0 0 64 64" fill="none" xmlns="http://www.w3.org/2000/svg">
<path d="M33 11.375H15C13.906 11.375 12.8568 11.8096 12.0832 12.5832C11.3096 13.3568 10.875 14.406 10.875 15.5V48.5C10.875 49.594 11.3096 50.6432 12.0832 51.4168C12.8568 52.1904 13.906 52.625 15 52.625H33C34.094 52.625 35.1432 52.1904 35.9168 51.4168C36.6904 50.6432 37.125 49.594 37.125 48.5V15.5C37.125 14.406 36.6904 13.3568 35.9168 12.5832C35.1432 11.8096 34.094 11.375 33 11.375ZM13.125 19.625H34.875V44.375H13.125V19.625ZM15 13.625H33C33.4973 13.625 33.9742 13.8225 34.3258 14.1742C34.6775 14.5258 34.875 15.0027 34.875 15.5V17.375H13.125V15.5C13.125 15.0027 13.3225 14.5258 13.6742 14.1742C14.0258 13.8225 14.5027 13.625 15 13.625ZM33 50.375H15C14.5027 50.375 14.0258 50.1775 13.6742 49.8258C13.3225 49.4742 13.125 48.9973 13.125 48.5V46.625H34.875V48.5C34.875 48.9973 34.6775 49.4742 34.3258 49.8258C33.9742 50.1775 33.4973 50.375 33 50.375Z" fill="#1A1A1A"/>
<path d="M31 30.375C31 34.75 24.5131 38.2913 24.2369 38.4375C24.1641 38.4767 24.0827 38.4972 24 38.4972C23.9173 38.4972 23.8359 38.4767 23.7631 38.4375C23.4869 38.2913 17 34.75 17 30.375C17.0012 29.3476 17.4098 28.3627 18.1362 27.6362C18.8627 26.9098 19.8476 26.5012 20.875 26.5C22.1656 26.5 23.2956 27.055 24 27.9931C24.7044 27.055 25.8344 26.5 27.125 26.5C28.1524 26.5012 29.1373 26.9098 29.8638 27.6362C30.5902 28.3627 30.9988 29.3476 31 30.375Z" fill="#1A1A1A"/>
</svg>
