<svg width="16" height="16" viewBox="0 0 16 16" fill="none" xmlns="http://www.w3.org/2000/svg">
<g clip-path="url(#clip0_528_184)">
<circle cx="9.5" cy="8.5" r="6.5" fill="#FFD400"/>
<path d="M9.5 2C8.21442 2 6.95772 2.38122 5.8888 3.09545C4.81988 3.80968 3.98676 4.82484 3.49479 6.01256C3.00282 7.20028 2.87409 8.50721 3.1249 9.76809C3.3757 11.029 3.99477 12.1872 4.90381 13.0962C5.81285 14.0052 6.97104 14.6243 8.23192 14.8751C9.49279 15.1259 10.7997 14.9972 11.9874 14.5052C13.1752 14.0132 14.1903 13.1801 14.9046 12.1112C15.6188 11.0423 16 9.78558 16 8.5C15.9982 6.77665 15.3128 5.12441 14.0942 3.90582C12.8756 2.68722 11.2234 2.00182 9.5 2ZM9.5 14C8.41221 14 7.34884 13.6774 6.44437 13.0731C5.5399 12.4687 4.83495 11.6098 4.41867 10.6048C4.00238 9.59977 3.89347 8.4939 4.10568 7.427C4.3179 6.36011 4.84173 5.3801 5.61092 4.61091C6.3801 3.84172 7.36011 3.3179 8.42701 3.10568C9.4939 2.89346 10.5998 3.00238 11.6048 3.41866C12.6098 3.83494 13.4687 4.53989 14.0731 5.44436C14.6774 6.34883 15 7.4122 15 8.5C14.9983 9.95818 14.4184 11.3562 13.3873 12.3873C12.3562 13.4184 10.9582 13.9983 9.5 14ZM9 9V5.5C9 5.36739 9.05268 5.24021 9.14645 5.14645C9.24022 5.05268 9.36739 5 9.5 5C9.63261 5 9.75979 5.05268 9.85356 5.14645C9.94732 5.24021 10 5.36739 10 5.5V9C10 9.13261 9.94732 9.25979 9.85356 9.35355C9.75979 9.44732 9.63261 9.5 9.5 9.5C9.36739 9.5 9.24022 9.44732 9.14645 9.35355C9.05268 9.25979 9 9.13261 9 9ZM10.25 11.25C10.25 11.3983 10.206 11.5433 10.1236 11.6667C10.0412 11.79 9.92406 11.8861 9.78701 11.9429C9.64997 11.9997 9.49917 12.0145 9.35368 11.9856C9.2082 11.9567 9.07456 11.8852 8.96967 11.7803C8.86478 11.6754 8.79335 11.5418 8.76441 11.3963C8.73547 11.2508 8.75033 11.1 8.80709 10.963C8.86386 10.8259 8.95999 10.7088 9.08333 10.6264C9.20666 10.544 9.35167 10.5 9.5 10.5C9.69892 10.5 9.88968 10.579 10.0303 10.7197C10.171 10.8603 10.25 11.0511 10.25 11.25Z" fill="#303030"/>
</g>
<defs>
<clipPath id="clip0_528_184">
<rect width="16" height="16" fill="white"/>
</clipPath>
</defs>
</svg>
