<svg width="24" height="24" viewBox="0 0 24 24" fill="none" xmlns="http://www.w3.org/2000/svg">
<path d="M22.3123 5.24998V9.74998C22.3123 9.89917 22.2531 10.0422 22.1476 10.1477C22.0421 10.2532 21.899 10.3125 21.7498 10.3125H17.2498C17.1006 10.3125 16.9576 10.2532 16.8521 10.1477C16.7466 10.0422 16.6873 9.89917 16.6873 9.74998C16.6873 9.6008 16.7466 9.45772 16.8521 9.35223C16.9576 9.24674 17.1006 9.18748 17.2498 9.18748H20.3014L17.4533 6.58123C17.4476 6.57561 17.442 6.56904 17.4355 6.56342C16.3668 5.49544 15.0072 4.766 13.5265 4.46624C12.0457 4.16647 10.5095 4.30966 9.10962 4.87792C7.70977 5.44618 6.5084 6.41432 5.65557 7.66139C4.80275 8.90847 4.33629 10.3792 4.31446 11.8898C4.29263 13.4005 4.7164 14.884 5.53284 16.1552C6.34928 17.4264 7.52218 18.4289 8.90502 19.0373C10.2879 19.6458 11.8193 19.8333 13.3081 19.5765C14.7969 19.3196 16.1771 18.6298 17.2761 17.5931C17.3846 17.4907 17.5294 17.4355 17.6786 17.4398C17.8277 17.4442 17.9691 17.5075 18.0715 17.6161C18.174 17.7246 18.2291 17.8694 18.2248 18.0186C18.2205 18.1677 18.1571 18.3091 18.0486 18.4115C16.4153 19.9587 14.2495 20.8184 11.9998 20.8125H11.8798C10.4368 20.7922 9.02082 20.4178 7.75634 19.7221C6.49186 19.0265 5.41757 18.031 4.62785 16.8231C3.83814 15.6151 3.35717 14.2317 3.22721 12.7944C3.09725 11.3571 3.32228 9.90986 3.88252 8.57986C4.44276 7.24986 5.32107 6.0778 6.44027 5.16667C7.55947 4.25554 8.88532 3.63322 10.3013 3.35439C11.7173 3.07557 13.1801 3.14876 14.5612 3.56756C15.9423 3.98635 17.1994 4.73792 18.222 5.75623L21.1873 8.47029V5.24998C21.1873 5.1008 21.2466 4.95772 21.3521 4.85223C21.4576 4.74674 21.6006 4.68748 21.7498 4.68748C21.899 4.68748 22.0421 4.74674 22.1476 4.85223C22.2531 4.95772 22.3123 5.1008 22.3123 5.24998Z" fill="#B2B2B2"/>
</svg>
