<svg width="64" height="64" viewBox="0 0 64 64" fill="none" xmlns="http://www.w3.org/2000/svg">
<path d="M39 15.875H9C8.30381 15.875 7.63613 16.1516 7.14384 16.6438C6.65156 17.1361 6.375 17.8038 6.375 18.5V29C6.375 38.7388 11.085 44.6375 15.0375 47.87C19.2994 51.3575 23.5256 52.5369 23.7038 52.5856C23.8977 52.6386 24.1023 52.6386 24.2962 52.5856C24.4744 52.5369 28.7006 51.3575 32.9625 47.87C36.915 44.6375 41.625 38.7388 41.625 29V18.5C41.625 17.8038 41.3484 17.1361 40.8562 16.6438C40.3639 16.1516 39.6962 15.875 39 15.875ZM39.375 29C39.375 36.08 36.7612 41.8231 31.605 46.0737C29.343 47.9312 26.7676 49.3701 24 50.3225C21.232 49.3709 18.6565 47.932 16.395 46.0737C11.2388 41.8231 8.625 36.08 8.625 29V18.5C8.625 18.4005 8.66451 18.3052 8.73483 18.2348C8.80516 18.1645 8.90054 18.125 9 18.125H39C39.0995 18.125 39.1948 18.1645 39.2652 18.2348C39.3355 18.3052 39.375 18.4005 39.375 18.5V29Z" fill="#343330"/>
<path d="M33.375 32C33.3749 34.2074 32.5959 36.344 31.1751 38.0335C29.7543 39.7229 27.783 40.8569 25.6083 41.2356C23.4336 41.6142 21.195 41.2134 19.2868 40.1036C17.3786 38.9938 15.9232 37.2463 15.177 35.1688C14.4307 33.0914 14.4415 30.8172 15.2073 28.7469C15.9732 26.6765 17.4451 24.9429 19.3637 23.8512C21.2823 22.7595 23.5246 22.3799 25.6956 22.7791C27.8666 23.1784 29.8272 24.3309 31.2319 26.0337C31.3259 26.1477 31.3966 26.279 31.4399 26.4203C31.4832 26.5616 31.4983 26.71 31.4842 26.8571C31.4701 27.0041 31.4273 27.147 31.358 27.2775C31.2887 27.408 31.1944 27.5236 31.0805 27.6177C30.9665 27.7117 30.8352 27.7824 30.6939 27.8257C30.5526 27.869 30.4042 27.884 30.2572 27.87C30.1101 27.8559 29.9672 27.813 29.8367 27.7438C29.7062 27.6745 29.5906 27.5802 29.4966 27.4662C28.4598 26.2095 27.0237 25.346 25.4276 25.0196C23.8314 24.6932 22.1716 24.9237 20.7248 25.6727C19.278 26.4217 18.1315 27.6439 17.4765 29.1356C16.8215 30.6273 16.6975 32.2984 17.1251 33.8705C17.5528 35.4425 18.5063 36.8205 19.8267 37.7748C21.1471 38.7292 22.7547 39.2022 24.3816 39.115C26.0084 39.0278 27.5562 38.3857 28.7671 37.2957C29.978 36.2058 30.7787 34.7337 31.0359 33.125H24C23.7016 33.125 23.4155 33.0065 23.2045 32.7955C22.9935 32.5845 22.875 32.2984 22.875 32C22.875 31.7016 22.9935 31.4155 23.2045 31.2045C23.4155 30.9935 23.7016 30.875 24 30.875H32.25C32.5484 30.875 32.8345 30.9935 33.0455 31.2045C33.2565 31.4155 33.375 31.7016 33.375 32Z" fill="#343330"/>
</svg>
