<svg width="22" height="10" viewBox="0 0 22 10" fill="none" xmlns="http://www.w3.org/2000/svg">
<path d="M5.76474 1.72727H7.08221V6.47869C7.08221 6.99953 6.9591 7.45762 6.71289 7.85298C6.46905 8.24834 6.12577 8.55729 5.68306 8.77983C5.24035 9 4.72307 9.11009 4.13121 9.11009C3.53699 9.11009 3.01853 9 2.57582 8.77983C2.13311 8.55729 1.78983 8.24834 1.54599 7.85298C1.30214 7.45762 1.18022 6.99953 1.18022 6.47869V1.72727H2.49769V6.36861C2.49769 6.67164 2.56398 6.94152 2.69656 7.17827C2.8315 7.41501 3.02089 7.60085 3.26474 7.7358C3.50858 7.86837 3.79741 7.93466 4.13121 7.93466C4.46502 7.93466 4.75385 7.86837 4.99769 7.7358C5.2439 7.60085 5.4333 7.41501 5.56587 7.17827C5.69845 6.94152 5.76474 6.67164 5.76474 6.36861V1.72727ZM12.4666 3.72656C12.4335 3.41643 12.2938 3.17495 12.0476 3.00213C11.8037 2.82931 11.4865 2.7429 11.0959 2.7429C10.8213 2.7429 10.5857 2.78433 10.3892 2.86719C10.1927 2.95005 10.0424 3.0625 9.93821 3.20455C9.83404 3.34659 9.78078 3.50876 9.77841 3.69105C9.77841 3.84257 9.81274 3.97396 9.88139 4.08523C9.95241 4.1965 10.0483 4.29119 10.169 4.36932C10.2898 4.44508 10.4235 4.509 10.5703 4.56108C10.7171 4.61316 10.8651 4.65696 11.0142 4.69247L11.696 4.86293C11.9706 4.92685 12.2346 5.01326 12.4879 5.12216C12.7436 5.23106 12.9721 5.36837 13.1733 5.53409C13.3769 5.69981 13.5379 5.89986 13.6562 6.13423C13.7746 6.36861 13.8338 6.64323 13.8338 6.9581C13.8338 7.38423 13.7249 7.75947 13.5071 8.08381C13.2893 8.40578 12.9744 8.65791 12.5625 8.8402C12.1529 9.02012 11.657 9.11009 11.0746 9.11009C10.5088 9.11009 10.0175 9.02249 9.60085 8.8473C9.18655 8.67211 8.86222 8.41643 8.62784 8.08026C8.39583 7.74408 8.27036 7.33452 8.25142 6.85156H9.54759C9.56652 7.10488 9.64465 7.31558 9.78196 7.48366C9.91927 7.65175 10.098 7.77723 10.3182 7.86009C10.5407 7.94295 10.7893 7.98438 11.0639 7.98438C11.3504 7.98438 11.6013 7.94176 11.8168 7.85653C12.0346 7.76894 12.205 7.6482 12.3281 7.49432C12.4512 7.33807 12.514 7.15578 12.5163 6.94744C12.514 6.75805 12.4583 6.6018 12.3494 6.47869C12.2405 6.35322 12.0878 6.24905 11.8913 6.16619C11.6972 6.08097 11.4699 6.00521 11.2095 5.93892L10.3821 5.72585C9.78314 5.57197 9.30966 5.33878 8.96165 5.02628C8.616 4.71141 8.44318 4.29356 8.44318 3.77273C8.44318 3.34422 8.55919 2.96899 8.79119 2.64702C9.02557 2.32505 9.34399 2.07528 9.74645 1.89773C10.1489 1.7178 10.6046 1.62784 11.1136 1.62784C11.6297 1.62784 12.0819 1.7178 12.4702 1.89773C12.8608 2.07528 13.1674 2.32268 13.3899 2.63991C13.6125 2.95478 13.7273 3.317 13.7344 3.72656H12.4666ZM17.4728 9H15.0083V1.72727H17.5225C18.2446 1.72727 18.8649 1.87287 19.3833 2.16406C19.9042 2.45289 20.3043 2.86837 20.5836 3.41051C20.863 3.95265 21.0027 4.60133 21.0027 5.35653C21.0027 6.11411 20.8618 6.76515 20.5801 7.30966C20.3007 7.85417 19.8971 8.27202 19.3691 8.56321C18.8436 8.8544 18.2115 9 17.4728 9ZM16.3258 7.86009H17.4089C17.9155 7.86009 18.3381 7.76776 18.6767 7.5831C19.0152 7.39607 19.2697 7.1179 19.4402 6.74858C19.6106 6.37689 19.6958 5.91288 19.6958 5.35653C19.6958 4.80019 19.6106 4.33854 19.4402 3.97159C19.2697 3.60227 19.0176 3.32647 18.6838 3.14418C18.3523 2.95952 17.9404 2.86719 17.448 2.86719H16.3258V7.86009Z" fill="#1A1A1A"/>
</svg>
