<svg width="24" height="24" viewBox="0 0 24 24" fill="none" xmlns="http://www.w3.org/2000/svg">
<path d="M16.2806 9.21939C16.3503 9.28904 16.4056 9.37176 16.4433 9.46281C16.4811 9.55385 16.5005 9.65145 16.5005 9.75001C16.5005 9.84857 16.4811 9.94617 16.4433 10.0372C16.4056 10.1283 16.3503 10.211 16.2806 10.2806L11.0306 15.5306C10.9609 15.6004 10.8782 15.6557 10.7871 15.6934C10.6961 15.7312 10.5985 15.7506 10.4999 15.7506C10.4014 15.7506 10.3038 15.7312 10.2127 15.6934C10.1217 15.6557 10.039 15.6004 9.9693 15.5306L7.7193 13.2806C7.57857 13.1399 7.49951 12.949 7.49951 12.75C7.49951 12.551 7.57857 12.3601 7.7193 12.2194C7.86003 12.0787 8.05091 11.9996 8.24993 11.9996C8.44895 11.9996 8.63982 12.0787 8.78055 12.2194L10.4999 13.9397L15.2193 9.21939C15.289 9.14965 15.3717 9.09433 15.4627 9.05659C15.5538 9.01885 15.6514 8.99942 15.7499 8.99942C15.8485 8.99942 15.9461 9.01885 16.0371 9.05659C16.1282 9.09433 16.2109 9.14965 16.2806 9.21939Z" fill="#1A1A1A"/>
</svg>
